<svg xmlns="http://www.w3.org/2000/svg" xmlns:xlink="http://www.w3.org/1999/xlink" version="1.1" x="0px" y="0px" viewBox="0 0 100 125" enable-background="new 0 0 100 100" xml:space="preserve"><path d="M66.114,19.982l0.713,12.867l0.11,1.983h1.986h10.789c3.475,0,6.3,2.826,6.3,6.299v29.581c0,3.474-2.825,6.299-6.3,6.299  h-8.218h-2.22l0.123,2.216l0.521,9.419l0.073,1.318l1.221,0.506c0.496,0.204,0.815,0.682,0.815,1.214  c0,0.48-0.255,0.798-0.406,0.943l-0.095,0.092l-0.083,0.104c-0.739,0.922-3.406,2.295-8.669,3.387  c-5.011,1.038-11.381,1.61-17.937,1.61c-15.569,0-25.092-3.001-26.625-5.029l-0.077-0.102l-0.088-0.091  c-0.242-0.252-0.375-0.574-0.375-0.914c0-0.572,0.368-0.971,0.712-1.151l1.053-0.555l0.065-1.188l3.815-68.808H66.114   M69.107,73.243h1.984h3.634c4.308,0,7.811-3.505,7.811-7.812v-19.42c0-4.308-3.503-7.813-7.811-7.813h-5.383h-2.222l0.126,2.219  l1.749,30.846L69.107,73.243 M68.101,17.882H21.334l-3.926,70.793c-1.085,0.57-1.833,1.697-1.833,3.009  c0,0.924,0.37,1.758,0.965,2.374c2.522,3.337,14.23,5.861,28.3,5.861c13.957,0,25.594-2.484,28.242-5.781  c0.644-0.622,1.046-1.489,1.046-2.454c0-1.424-0.87-2.642-2.11-3.154l-0.522-9.419h8.218c4.64,0,8.399-3.761,8.399-8.398V41.131  c0-4.639-3.76-8.399-8.399-8.399H68.924L68.101,17.882L68.101,17.882z M71.092,71.144l-1.749-30.846h5.383  c3.153,0,5.712,2.558,5.712,5.713v19.42c0,3.154-2.559,5.712-5.712,5.712H71.092L71.092,71.144z"/><path d="M71.462,16.744c0.037-0.377,0.056-0.754,0.056-1.127c0-6.407-5.156-11.62-11.495-11.62c-2.868,0-5.524,1.05-7.562,2.848  c-1.654-4.243-5.634-7.24-10.27-7.24c-3.712,0-7.091,1.901-9.139,5.054c-0.124-0.006-0.248-0.009-0.373-0.009  c-3.394,0-6.244,2.384-6.994,5.581c-5.127,1.047-8.918,5.725-8.918,11.391c0,6.407,4.974,11.619,11.086,11.619  c3,0,5.813-1.249,7.89-3.463c2.206,0.115,4.288-0.81,5.707-2.407c0.416,0.141,0.841,0.245,1.278,0.309  c1.795,4.074,5.672,6.719,10.056,6.719c4.224,0,7.964-2.468,9.831-6.254c1.193,0.845,2.634,1.324,4.127,1.324  c3.965,0,7.188-3.254,7.188-7.254C73.93,20.093,73.011,18.106,71.462,16.744z"/><path fill="#000000" d="M69.191,17.694c0.148-0.669,0.231-1.363,0.231-2.078c0-5.257-4.207-9.519-9.396-9.519  c-2.503,0-4.77,0.997-6.453,2.612c-0.714-0.386-1.528-0.606-2.392-0.606c-0.168,0-0.333,0.01-0.496,0.025  c-1.212-3.736-4.551-6.425-8.491-6.425c-3.519,0-6.557,2.147-8.03,5.269c-0.469-0.145-0.966-0.224-1.481-0.224  c-2.81,0-5.088,2.308-5.088,5.154c0,0.005,0.001,0.01,0.001,0.014c-4.845,0.145-8.732,4.34-8.732,9.507  c0,5.257,4.022,9.52,8.987,9.52c2.695,0,5.106-1.264,6.753-3.254c0.488,0.158,1.007,0.245,1.548,0.245  c2.066,0,3.84-1.25,4.636-3.042c0.845,0.631,1.883,1.007,3.012,1.007c0.167,0,0.332-0.009,0.496-0.024  c1.213,3.735,4.552,6.425,8.491,6.425c4.237,0,7.78-3.112,8.729-7.293c0.287-0.046,0.571-0.106,0.851-0.179  c0.884,1.52,2.513,2.542,4.379,2.542c2.811,0,5.088-2.309,5.088-5.156C71.833,20.266,70.766,18.571,69.191,17.694z"/><path d="M58.681,38.508c0.976,0,1.768,0.765,1.802,1.741l1.582,45.335c0.035,0.993-0.744,1.832-1.739,1.866l-0.062,0.001  c-0.978,0-1.769-0.764-1.803-1.742l-1.583-45.334c-0.017-0.481,0.154-0.941,0.483-1.293c0.329-0.352,0.775-0.555,1.257-0.572  L58.681,38.508 M58.681,38.158c-0.024,0-0.051,0-0.076,0.001c-1.189,0.042-2.119,1.039-2.077,2.228l1.582,45.336  c0.042,1.161,0.997,2.078,2.153,2.078c0.024,0,0.05,0,0.075,0c1.189-0.043,2.118-1.04,2.077-2.229l-1.584-45.336  C60.791,39.074,59.837,38.158,58.681,38.158L58.681,38.158z"/><path d="M49.45,38.495c0.996,0,1.804,0.809,1.804,1.804v47.462c0,0.996-0.809,1.806-1.804,1.806c-0.994,0-1.804-0.81-1.804-1.806  V40.298C47.646,39.304,48.456,38.495,49.45,38.495 M49.45,38.145c-1.189,0-2.154,0.964-2.154,2.154v47.462  c0,1.19,0.964,2.154,2.154,2.154c1.189,0,2.154-0.964,2.154-2.154V40.298C51.604,39.109,50.639,38.145,49.45,38.145L49.45,38.145z"/><path d="M40.129,38.495c0.995,0,1.804,0.809,1.804,1.804v47.462c0,0.996-0.81,1.806-1.804,1.806s-1.804-0.81-1.804-1.806V40.298  C38.325,39.304,39.135,38.495,40.129,38.495 M40.129,38.145c-1.19,0-2.154,0.964-2.154,2.154v47.462c0,1.19,0.964,2.154,2.154,2.154  c1.19,0,2.154-0.964,2.154-2.154V40.298C42.284,39.109,41.319,38.145,40.129,38.145L40.129,38.145z"/><path d="M30.844,38.508l0.064,0.001c0.481,0.017,0.928,0.22,1.257,0.572c0.328,0.353,0.5,0.812,0.483,1.293L31.065,85.71  c-0.035,0.979-0.826,1.742-1.802,1.742l-0.064-0.001c-0.994-0.034-1.775-0.873-1.74-1.866l1.583-45.335  C29.077,39.273,29.868,38.508,30.844,38.508 M30.844,38.158c-1.155,0-2.11,0.916-2.151,2.079L27.11,85.573  c-0.042,1.188,0.889,2.186,2.077,2.229c0.026,0,0.051,0,0.077,0c1.155,0,2.11-0.917,2.151-2.078l1.583-45.336  c0.042-1.189-0.889-2.187-2.078-2.228C30.895,38.159,30.869,38.158,30.844,38.158L30.844,38.158z"/><text x="0" y="115" fill="#000000" font-size="5px" font-weight="bold" font-family="'Helvetica Neue', Helvetica, Arial-Unicode, Arial, Sans-serif">Created by Timothy Deegan</text><text x="0" y="120" fill="#000000" font-size="5px" font-weight="bold" font-family="'Helvetica Neue', Helvetica, Arial-Unicode, Arial, Sans-serif">from the Noun Project</text></svg>