<svg xmlns="http://www.w3.org/2000/svg" xmlns:xlink="http://www.w3.org/1999/xlink" version="1.1" x="0px" y="0px" viewBox="0 0 100 106.28875000000001" enable-background="new 0 0 100 85.031" xml:space="preserve"><g><path d="M40.797,12.497v0.002c0.007,0,0.014-0.002,0.021-0.002c2.899,0,5.324,1.675,6.145,3.968   c0.869-0.504,1.842-0.796,2.875-0.796c1.042,0,2.024,0.297,2.899,0.81c0.817-2.299,3.246-3.981,6.15-3.981   c0.007,0,0.016,0.002,0.021,0.002v-0.002h4.691c0.071-0.005,0.144-0.007,0.217-0.014C62.324,6.631,56.703,2.277,49.976,2.277   c-6.734,0-12.357,4.361-13.844,10.219H40.797z"/><path d="M98.815,53.447L76.674,20.993c-0.273-0.401-0.593-0.748-0.936-1.063c0.578,1.41,0.903,2.95,0.903,4.565   c0,4.299-2.269,8.07-5.663,10.206l7.093,10.396l-9.557-3.24c-6.714-1.883-14.605-2.18-14.605-2.18   c2.231-0.816,4.18-2.299,5.628-4.244c-3.932-1.825-6.725-5.699-6.983-10.25c0,0-0.133-3.336-2.75-3.314   c-2.265,0.019-2.618,2.252-2.705,3.288c-0.002,4.744-2.717,8.188-6.712,10.154c1.467,2.015,3.461,3.547,5.753,4.375   c0,0-8.507,0.229-14.76,2.171l-9.556,3.24l7.024-10.296c-3.486-2.117-5.828-5.939-5.828-10.306c0-1.465,0.276-2.862,0.756-4.162   c-0.191,0.211-0.389,0.417-0.555,0.66L1.081,53.447c-1.506,2.207-1.433,5.131,0.184,7.261c1.198,1.578,3.044,2.456,4.951,2.456   c0.665,0,1.338-0.106,1.993-0.329l20.679-7.01v29.206h41.891V55.749l20.907,7.086c0.655,0.223,1.328,0.329,1.992,0.329   c1.907,0,3.754-0.878,4.951-2.456C100.246,58.578,100.32,55.654,98.815,53.447z"/></g><g><g><g><path d="M35.083,34.082c-5.286,0-9.587-4.299-9.587-9.586c0-5.286,4.301-9.587,9.587-9.587c5.287,0,9.589,4.301,9.589,9.587     C44.672,29.782,40.37,34.082,35.083,34.082L35.083,34.082z M35.083,19.856c-2.558,0-4.639,2.081-4.639,4.639     c0,2.557,2.082,4.639,4.639,4.639c2.559,0,4.641-2.082,4.641-4.639C39.724,21.938,37.642,19.856,35.083,19.856L35.083,19.856z"/></g><g><path d="M64.581,34.082c-5.287,0-9.588-4.299-9.588-9.586c0-5.286,4.301-9.587,9.588-9.587c5.286,0,9.587,4.301,9.587,9.587     C74.168,29.782,69.867,34.082,64.581,34.082L64.581,34.082z M64.581,19.856c-2.558,0-4.638,2.081-4.638,4.639     c0,2.557,2.08,4.639,4.638,4.639c2.557,0,4.638-2.082,4.638-4.639C69.219,21.938,67.138,19.856,64.581,19.856L64.581,19.856z"/></g></g></g><text x="0" y="100.031" fill="#000000" font-size="5px" font-weight="bold" font-family="'Helvetica Neue', Helvetica, Arial-Unicode, Arial, Sans-serif">Created by Luis Prado</text><text x="0" y="105.031" fill="#000000" font-size="5px" font-weight="bold" font-family="'Helvetica Neue', Helvetica, Arial-Unicode, Arial, Sans-serif">from the Noun Project</text></svg>