<svg xmlns="http://www.w3.org/2000/svg" xmlns:xlink="http://www.w3.org/1999/xlink" version="1.1" x="0px" y="0px" viewBox="0 0 100 125" enable-background="new 0 0 100 100" xml:space="preserve"><g><g><g><path d="M15.5,52.6c3,0,6,0,8.9,0c-0.8-0.8-1.7-1.7-2.5-2.5c0,9.6,0,19.1,0,28.7c0,1.4,1.1,2.5,2.5,2.5c14.3,0,28.6,0,42.9,0     c2.3,0,8.1,1.1,9.9-0.7c1.4-1.4,0.7-5.2,0.7-7c0-7.8,0-15.7,0-23.5c-0.8,0.8-1.7,1.7-2.5,2.5c3,0,6,0,8.9,0c2,0,3.5-2.8,1.8-4.3     c-11.5-9.7-23-19.3-34.5-29c-1.1-0.9-2.4-0.9-3.5,0c-11.5,9.7-23,19.3-34.5,29c-2.5,2.1,1.1,5.6,3.5,3.5     c11.5-9.7,23-19.3,34.5-29c-1.2,0-2.4,0-3.5,0c11.5,9.7,23,19.3,34.5,29c0.6-1.4,1.2-2.8,1.8-4.3c-3,0-6,0-8.9,0     c-1.4,0-2.5,1.1-2.5,2.5c0,7.3,0,14.6,0,21.8c0,1.6,0,3.3,0,4.9c0,3.8,0-0.6,2.2-0.6c-3.9,0-7.9,0-11.8,0c-13,0-26,0-38.9,0     c0.8,0.8,1.7,1.7,2.5,2.5c0-9.6,0-19.1,0-28.7c0-1.4-1.1-2.5-2.5-2.5c-3,0-6,0-8.9,0C12.3,47.6,12.3,52.6,15.5,52.6z"/></g></g></g><text x="0" y="115" fill="#000000" font-size="5px" font-weight="bold" font-family="'Helvetica Neue', Helvetica, Arial-Unicode, Arial, Sans-serif">Created by Guilhem</text><text x="0" y="120" fill="#000000" font-size="5px" font-weight="bold" font-family="'Helvetica Neue', Helvetica, Arial-Unicode, Arial, Sans-serif">from the Noun Project</text></svg>