<svg xmlns="http://www.w3.org/2000/svg" xmlns:xlink="http://www.w3.org/1999/xlink" version="1.1" x="0px" y="0px" viewBox="0 0 100 125" enable-background="new 0 0 100 100" xml:space="preserve"><path d="M7.5,52.5H15v40c0,1.4,1.1,2.5,2.5,2.5h65c1.4,0,2.5-1.1,2.5-2.5v-40h7.5c2.2,0,3.3-2.7,1.8-4.3L51.8,5.7c-1-1-2.6-1-3.5,0  L5.7,48.2C4.2,49.8,5.3,52.5,7.5,52.5z M50,11l36.5,36.5h-4c-1.4,0-2.5,1.1-2.5,2.5v40H20V50c0-1.4-1.1-2.5-2.5-2.5h-4L50,11z"/><path d="M25,50.5l5,25c0.2,1.2,1.3,2,2.5,2h35c1.2,0,2.2-0.8,2.5-2l5-25c0.2-0.8-0.1-1.7-0.7-2.3L60.1,34.1c-1-1-2.6-1-3.5,0  c-1,1-1,2.6,0,3.5l9.9,9.9H33.5l9.9-9.9c1-1,1-2.6,0-3.5c-1-1-2.6-1-3.5,0L25.7,48.2C25.2,48.8,24.9,49.7,25,50.5z M69.5,52.5l-4,20  H34.5l-4-20H69.5z"/><text x="0" y="115" fill="#000000" font-size="5px" font-weight="bold" font-family="'Helvetica Neue', Helvetica, Arial-Unicode, Arial, Sans-serif">Created by Arthur Shlain</text><text x="0" y="120" fill="#000000" font-size="5px" font-weight="bold" font-family="'Helvetica Neue', Helvetica, Arial-Unicode, Arial, Sans-serif">from the Noun Project</text></svg>