<svg xmlns="http://www.w3.org/2000/svg" xmlns:xlink="http://www.w3.org/1999/xlink" version="1.1" x="0px" y="0px" viewBox="0 0 100 125" enable-background="new 0 0 100 100" xml:space="preserve"><g><rect x="-192" width="185" height="99"/><rect y="-36" width="100" height="30"/><text transform="matrix(1 0 0 1 66 -19.5)" fill="#000000" font-family="'Helvetica'" font-size="2.4">http://thenounproject.com</text><text transform="matrix(1 0 0 1 7.166 -24.5)"><tspan x="0" y="0" fill="#000000" font-family="'Helvetica-Bold'" font-size="6.1578">The Noun Project</tspan><tspan x="1.12" y="4.8" fill="#000000" font-family="'Helvetica-Bold'" font-size="4">Icon Template</tspan></text><text transform="matrix(1 0 0 1 -178.5 10.5)" fill="#000000" font-family="'Helvetica-Bold'" font-size="6.1578">Reminders</text><line fill="#000000" stroke="#FFFFFF" stroke-miterlimit="10" x1="8" y1="-14.5" x2="18" y2="-14.5"/><line fill="#000000" stroke="#FFFFFF" stroke-miterlimit="10" x1="-179" y1="16.5" x2="-162" y2="16.5"/><g><g><g><rect x="-170.802" y="31.318" fill="#000000" width="8.721" height="8.642"/><path fill="#000000" d="M-164.455,42.312h4.747v-4.703h-4.747V42.312z M-159.266,42.749h-5.63V37.17h5.63V42.749      L-159.266,42.749z M-166.221,44.062h8.279v-8.203h-8.279V44.062L-166.221,44.062z M-157.5,44.5h-9.163v-9.079h9.163V44.5      L-157.5,44.5z"/><polygon fill="#000000" points="-166.149,44.133 -166.292,43.991 -158.013,35.787 -157.871,35.929     "/></g></g></g><rect x="-179" y="58" fill="none" width="35" height="32.5"/><text transform="matrix(1 0 0 1 -179 60.1299)"><tspan x="0" y="0" fill="#000000" font-family="'Helvetica-Bold'" font-size="3">Strokes</tspan><tspan x="0" y="5" fill="#000000" font-family="'Helvetica'" font-size="2.4">Try to keep strokes at 4px</tspan><tspan x="0" y="10" fill="#000000" font-family="'Helvetica'" font-size="2.4">Minimum stroke weight is 2px</tspan><tspan x="0" y="14.5" fill="#000000" font-family="'Helvetica'" font-size="2.4">For thicker strokes use even </tspan><tspan x="0" y="17.5" fill="#000000" font-family="'Helvetica'" font-size="2.4">numbers: 6px, 8px etc.</tspan><tspan x="0" y="22" fill="#000000" font-family="'Helvetica-Bold'" font-size="2.4">Remember to expand strokes </tspan><tspan x="0" y="25" fill="#000000" font-family="'Helvetica-Bold'" font-size="2.4">before saving as an SVG </tspan></text><rect x="-136.5" y="58" fill="none" width="35" height="32.5"/><text transform="matrix(1 0 0 1 -136.5 60.1299)"><tspan x="0" y="0" fill="#000000" font-family="'Helvetica-Bold'" font-size="3">Size</tspan><tspan x="0" y="5" fill="#000000" font-family="'Helvetica'" font-size="2.4">Cannot be wider or taller than </tspan><tspan x="0" y="8.5" fill="#000000" font-family="'Helvetica'" font-size="2.4">100px (artboard size)</tspan><tspan x="0" y="13.5" fill="#000000" font-family="'Helvetica'" font-size="2.4">Scale your icon to fill as much of </tspan><tspan x="0" y="16.5" fill="#000000" font-family="'Helvetica'" font-size="2.4">the artboard as possible</tspan></text><rect x="-94" y="58" fill="none" width="35" height="32.5"/><text transform="matrix(1 0 0 1 -94 60.1299)"><tspan x="0" y="0" fill="#000000" font-family="'Helvetica-Bold'" font-size="3">Ungroup</tspan><tspan x="0" y="5" fill="#000000" font-family="'Helvetica'" font-size="2.4">If your design has more than one </tspan><tspan x="0" y="8" fill="#000000" font-family="'Helvetica'" font-size="2.4">shape, make sure to ungroup</tspan></text><rect x="-50" y="58" fill="none" width="35" height="32.5"/><text transform="matrix(1 0 0 1 -50 60.1299)"><tspan x="0" y="0" fill="#000000" font-family="'Helvetica-Bold'" font-size="3">Save as</tspan><tspan x="0" y="5" fill="#000000" font-family="'Helvetica'" font-size="2.4">Save as .SVG and make sure “Use </tspan><tspan x="0" y="8" fill="#000000" font-family="'Helvetica'" font-size="2.4">Artboards” is checked</tspan></text><text transform="matrix(1.0074 0 0 1 -125.542 30.5933)" fill="#000000" font-family="'Helvetica'" font-size="2.5731">100px</text><text transform="matrix(1.0074 0 0 1 -41 39)" fill="#000000" font-family="'Helvetica-Bold'" font-size="5.1462">.SVG</text><rect x="-126.514" y="34.815" fill="#000000" width="10.261" height="10.185"/><rect x="-126.477" y="31.766" fill="#000000" width="0.522" height="2.337"/><rect x="-116.813" y="31.766" fill="#000000" width="0.523" height="2.337"/><rect x="-127" y="32.337" fill="#000000" width="11.233" height="0.572"/><g><rect x="-83.805" y="33.844" fill="#000000" width="10.305" height="10.156"/><rect x="-76.809" y="28.707" fill="#000000" width="3.308" height="3.261"/></g><rect x="-178.5" y="22.5" fill="#000000" stroke="#FFFFFF" stroke-miterlimit="10" width="30" height="30"/><rect x="-136.5" y="22.5" fill="#000000" stroke="#FFFFFF" stroke-miterlimit="10" width="30" height="30"/><rect x="-93.5" y="22.5" fill="#000000" stroke="#FFFFFF" stroke-miterlimit="10" width="30" height="30"/><rect x="-49.5" y="22.5" fill="#000000" stroke="#FFFFFF" stroke-miterlimit="10" width="30" height="30"/></g><g><path d="M89.286,95.253c0,0-2.214-2.45-3.103-3.363c-0.272-1.629-0.66-4.368-0.66-4.368h3.463c0,0-2.084-1.087-3.463-1.731   c-0.802-0.966-5.603-7.261-6.563-8.603c-0.963-1.343-2.179-2.485-4.597-6.55c-2.677-4.495-4.423-7.357-4.423-7.357   s-3.591,1.873-11.772,2.257c-4.839,0.227-8.766-0.896-8.766-0.896s-3.468,5.475-6.467,10.291c-2.44,3.919-5.349,7.504-6.431,8.967   c-1.028,0.703-2.925,1.891-2.925,1.891l2.96,0.22c0,0,0.073,1.982-0.035,2.471c-0.109,0.486-1.09,2.086-1.09,2.086   s-1.895,1.224-1.833,1.331c0.178,0.305,2.993-0.322,2.993-0.322s4.418,1.664,7.002,2.739c2.583,1.072,7.428,3.506,7.428,3.812   c0,0.302-1.211,1.343-1.014,1.502c0.195,0.161,2.993-1.181,2.993-1.181s29.527-2.166,32.016-2.274   c2.49-0.108,5.719-0.206,5.719-0.479C90.718,95.425,89.286,95.253,89.286,95.253z M79.814,94.045   c-2.124,0.369-5.505,0.537-8.604,0.751c-3.101,0.217-10.264,0.591-10.264,0.591l8.994-2.671h8.657l-8.657-1.731V85.79h8.657   l-8.657-1.732c0,0,2.712-6.764,3.407-8.589c1.016,1.396,5.023,4.779,5.771,6.282c0.748,1.504,0.855,3.383,1.497,4.672   c0.64,1.285,1.015,2.254,1.282,3.058c0.267,0.806,0,1.073,0.588,1.988c0.588,0.913,2.513,1.718,2.513,1.718   S83.503,93.399,79.814,94.045z"/><path d="M34.931,88.102c0.011-0.103,0.017-0.315,0.019-0.591l-6.402-0.476l4.174-2.614c0.018-0.01,1.632-1.021,2.651-1.706   c0.011-0.014,0.024-0.031,0.036-0.047l-4.623,0.465l-0.139,0.015V67.052l3.378-0.703l9.115,0.071l-5.101-5.917l1.854-0.046   l-1.444-1.625l1.458-0.692l0.285,4.166l3.417-1.045v9.547c2.317-3.695,4.4-6.988,4.429-7.029l0.646-1.019l1.161,0.329   c0.01,0.005,0.403,0.112,1.072,0.252v-4.548l4.552-0.949l8.416,0.067l0.078,1.14l2.714-0.829v4.486   c1.693-0.454,2.509-0.855,2.523-0.863l1.332-0.674l0.784,1.268c0.01,0.014,0.433,0.708,1.165,1.922v-8.099l3.616-0.754l9.756,0.078   l-5.46-6.335l1.987-0.049l-4.852-5.454l6.936,0.076l-5.704-4.75l2.412-0.05l-5.276-4.372l1.809-0.05l-4.219-4.373l5.931,0.301   l-3.993-5.277l2.335,0.453l-3.42-4.121l1.709,0.151l-3.82-4.774l1.309,0.452l-4.119-5.478l-1.032-2.368l-0.878,2.519l-1.562,2.362   l-1.607,3.518l-1.407,2.362l-1.305,3.367l-2.011,3.267l1.618-0.386l-2.774,4.054l4.574-0.352l-3.316,4.322l1.608-0.402   l-1.031,1.591l-5.077-4.206l2.278-0.064l-5.313-5.505l7.467,0.38l-5.029-6.644l2.94,0.57l-4.306-5.189l2.151,0.19l-4.808-6.012   l1.647,0.569l-5.188-6.897L45.759,0l-1.105,3.172l-1.964,2.974l-2.026,4.429l-1.771,2.975l-1.642,4.24l-2.532,4.112l2.038-0.485   l-3.493,5.104l5.758-0.443l-4.177,5.442l2.026-0.505l-3.293,5.083l-1.195-1.441l1.596,0.142l-3.568-4.46l1.223,0.422l-3.85-5.118   L26.82,23.43l-0.821,2.354l-1.457,2.207l-1.503,3.287l-1.314,2.207l-1.218,3.146l-1.878,3.052l1.512-0.36l-2.592,3.787l4.272-0.328   l-3.099,4.038l1.503-0.376l-3.193,4.93l1.406,0.157l-2.721,3.646h4.414l-3.287,3.99l1.268,0.143l-2.676,3.099l1.549,0.212   l-3.169,4.717l6.26-2.068l-0.836,2.844l3.239-1.542l0.212,3.09l2.535-0.773v14.809l-5.347,0.537l10.536,4.272l4.347-0.044   C34.837,88.307,34.899,88.182,34.931,88.102z M65.887,43.131l0.118,0.001l-0.092-0.077l2.648-7.448l-4.173,4.273l2.968-9.399   l-2.364,1.809l3.019-7.89l-2.414,2.009l1.207-5.377l1.207-3.719l-1.107,0.703l1.708-5.024l1.707,2.111l-0.956-0.251l3.469,4.724   l-1.688-0.201l3.396,4.071l-1.959-0.251l4.776,6.282l-6.159-0.302l3.367,3.845l-2.276,0.025l5.367,4.573l-2.061-0.051l5.126,4.876   h-6.733l3.692,4.397l-2.336-0.152l5.276,6.182l-8.695-0.257l-4.12,7.27l0.98-5.203l-3.068,0.898l-0.015-0.017l2.482-7.818   l-5.004,2.992L65.887,43.131z M61.114,54.521l-0.43-0.013l0.365-0.12l0.078,0.09L61.114,54.521z M61.225,43.547l-1.682,2.042   l-1.816-2.042H61.225z M59.42,37.14l-0.213,0.331l-0.383-0.319L59.42,37.14z M45.983,32.786l-5.255,5.38l3.736-11.834l-2.977,2.277   l3.799-9.934l-3.041,2.53l1.523-6.77l1.518-4.683l-1.392,0.886l2.149-6.328l2.151,2.658l-1.203-0.316l4.366,5.948l-2.126-0.254   l4.278,5.127l-2.468-0.316l6.016,7.908L49.3,24.687l4.241,4.841l-2.868,0.031l6.758,5.759l-2.595-0.064l3.593,3.417l-0.521,0.805   l1.504,0.168l-1.305,1.749h-5.295l4.651,5.536l-2.943-0.189l2.787,3.264l-1.108,1.283l1.657,0.227l-1.916,2.854l-5.722-0.17   L45.03,63.35l1.233-6.549l-3.891,1.139l3.135-9.872l-6.299,3.766L45.983,32.786z M36.668,56.384l-0.098,0.336l-0.209-0.233   L36.668,56.384z M34.392,45.64l-2.755-2.856h0.967l3.974,0.202L34.392,45.64z M34.188,38.238l-0.336,0.45l-0.456-0.604   L34.188,38.238z M24.307,66.419l2.326-7.324l-4.674,2.794l5.026-14.133l-3.899,3.991l2.772-8.779l-2.208,1.688l2.818-7.371   l-2.255,1.878l1.129-5.023l1.126-3.475l-1.033,0.658l1.594-4.694l1.597,1.972l-0.892-0.235l3.24,4.414l-1.578-0.189l3.174,3.804   l-1.832-0.234l2.524,3.318l-1.767,2.369l-2.047-0.101l3.146,3.592l-2.128,0.023l2.442,2.08l-0.594,0.721l1.655,0.184l0.034,0.028   l-3.587,4.154l2.087,0.284l-4.271,6.358l6.298-2.08l0.975,1.157l-2.184-0.141l4.929,5.774l-8.123-0.239l-3.85,6.789l0.916-4.857   L24.307,66.419z"/></g><text x="0" y="115" fill="#000000" font-size="5px" font-weight="bold" font-family="'Helvetica Neue', Helvetica, Arial-Unicode, Arial, Sans-serif">Created by Victor</text><text x="0" y="120" fill="#000000" font-size="5px" font-weight="bold" font-family="'Helvetica Neue', Helvetica, Arial-Unicode, Arial, Sans-serif">from the Noun Project</text></svg>