<svg xmlns="http://www.w3.org/2000/svg" xmlns:xlink="http://www.w3.org/1999/xlink" xmlns:sketch="http://www.bohemiancoding.com/sketch/ns" viewBox="0 0 100 125" version="1.1" x="0px" y="0px"><title>100x100</title><desc>Created with Sketch.</desc><g stroke="none" stroke-width="1" fill="none" fill-rule="evenodd" sketch:type="MSPage"><g sketch:type="MSLayerGroup" transform="translate(15.000000, 5.063939)" fill="#000000"><g sketch:type="MSShapeGroup"><path d="M13.5687212,33.1690793 C12.8331841,34.9667903 12.0869054,37.0599872 12.1266496,38.9532097 C12.1297826,39.1008184 12.1379284,39.2460102 12.1504604,39.3881586 C12.1391816,39.5873274 12.1314834,39.7872123 12.1314834,39.9882609 C12.1314834,48.5486701 22.3697442,55.4882481 34.9993734,55.4882481 C47.6290026,55.4882481 57.8673529,48.5486701 57.8673529,39.9882609 C57.8673529,39.7560614 57.8576854,39.5252941 57.8426471,39.295601 C58.0563171,36.4792199 56.8234399,33.8169821 55.7063939,31.4059207 C54.7967519,29.4426982 55.0523146,26.2481202 55.8246419,24.2938491 L57.0316496,21.2401662 L55.0867775,23.8857545 C54.9637852,24.0530563 54.8361381,24.2439898 54.7009719,24.446023 C54.5653581,24.6489514 54.4252685,24.8586829 54.2862532,25.0488107 L52.1824936,27.6119565 C50.8611765,23.0661637 48.8026215,18.0403964 44.0946292,14.2399872 L43.3873785,13.6690665 L43.4024169,14.5779028 C43.5157417,21.3707673 42.3745269,26.7170844 39.8282097,31.2131074 C40.3762148,25.7346675 39.1594501,20.5588747 37.7241816,15.7448977 C36.4298977,11.403376 36.4650767,7.58345269 37.8314194,4.06671355 C38.0441944,3.51879795 38.3182864,2.98941176 38.6356138,2.37659847 C38.7975448,2.06392583 38.9648465,1.74069054 39.1414578,1.3821867 L39.785243,0.0742966752 L38.5391176,0.831138107 C33.2186701,4.06313299 28.8064322,8.08992327 25.4249488,12.7996164 C22.3829028,17.0365857 20.0681586,21.9764194 18.533977,27.5008696 C18.5314706,27.4950512 18.5290537,27.4894118 18.5266368,27.4835934 C18.2458312,26.8277238 17.9064834,26.1095524 17.6946036,25.6888363 C17.3319821,24.9682481 16.0252558,23.2393734 14.99289,21.916087 L13.389156,19.8600384 C14.0467263,21.7233632 14.5003836,23.4776598 14.8227238,25.4251279 C14.8749105,25.7403964 14.900422,25.8940026 14.9104476,25.9452941 C15.3725192,28.2957545 14.7911253,30.2600512 13.8832737,32.4149233 C13.77711,32.6669054 13.6713043,32.9182609 13.5687212,33.1690793"/><path d="M69.9302685,63.0345524 L66.4623146,53.4363171 L35.2503708,64.7132097 L5.20595908,50.6168926 L0.871150895,59.8561765 L21.6761893,69.6174169 L0.0623913043,77.426624 L3.53016624,87.0249488 L34.742468,75.7478772 L64.7867903,89.8441049 L69.121509,80.6050895 L48.3164706,70.8435806 L69.9302685,63.0345524"/></g></g></g><text x="0" y="115" fill="#000000" font-size="5px" font-weight="bold" font-family="'Helvetica Neue', Helvetica, Arial-Unicode, Arial, Sans-serif">Created by Nick Kinling</text><text x="0" y="120" fill="#000000" font-size="5px" font-weight="bold" font-family="'Helvetica Neue', Helvetica, Arial-Unicode, Arial, Sans-serif">from the Noun Project</text></svg>