<svg xmlns="http://www.w3.org/2000/svg" xmlns:xlink="http://www.w3.org/1999/xlink" version="1.1" x="0px" y="0px" viewBox="0 0 100 125" enable-background="new 0 0 100 100" xml:space="preserve"><path fill-rule="evenodd" clip-rule="evenodd" d="M73.136,76.77v-4.699h-4.397c-0.198-1.318-1.548-3.644-1.941-5.148  c8.304-10.16,4.36-30.795,2.767-31.604c-1.295-0.659-3.43,7.875-8.017,7.48c-9.563-2.844,4.252-7.495-9.464-28.965  c-3.181,8.148,1.383,10.208-8.862,19.148c-6.687,5.834-8.988,7.527-8.402,20.363c0.479,7.087-7.457,2.128-6.818-9.212  c-6.448,12.301,1.001,23.954,3.234,27.938h-4.372v4.699h-5.842v9.395h57.957V76.77H73.136z M38.803,62.613  c-0.312,5.58,3.59,8.018,3.355,4.534c-0.287-6.317,0.844-7.147,4.132-10.016c5.038-4.399,2.794-5.414,4.359-9.421  c6.749,10.562-0.047,12.848,4.657,14.246c2.256,0.195,3.307-4.001,3.941-3.679c0.702,0.357,2.316,8.502-0.272,13.794H38.326  C37.418,69.462,36.98,66.093,38.803,62.613z"/><text x="0" y="115" fill="#000000" font-size="5px" font-weight="bold" font-family="'Helvetica Neue', Helvetica, Arial-Unicode, Arial, Sans-serif">Created by João Proença</text><text x="0" y="120" fill="#000000" font-size="5px" font-weight="bold" font-family="'Helvetica Neue', Helvetica, Arial-Unicode, Arial, Sans-serif">from the Noun Project</text></svg>