<svg xmlns="http://www.w3.org/2000/svg" xmlns:xlink="http://www.w3.org/1999/xlink" version="1.1" x="0px" y="0px" viewBox="0 0 100 125" enable-background="new 0 0 100 100" xml:space="preserve"><g><g><path d="M62.366,35.466c-4.168,0.706-10.691,1.063-19.388,1.063c-8.139,0-14.391-0.315-18.583-0.936    c-1.749-0.259-2.981-0.549-3.863-0.852c-0.612,2.555-0.613,4.374-0.613,4.374s0.445,2.533,23.451,2.533    c23.007,0,23.452-2.533,23.452-2.533s-0.001-1.95-0.69-4.647C65.28,34.856,64.042,35.183,62.366,35.466z"/><path d="M71.019,12.154H49.403c-4.829,0-7.858,3.795-8.887,6.038c-0.072,0.158-0.118,0.32-0.165,0.482    c-12.342,0.971-17.233,8.229-19.165,13.826c0.607,0.216,1.683,0.506,3.552,0.783c4.079,0.604,10.216,0.91,18.241,0.91    c8.566,0,14.958-0.347,18.998-1.03c2.423-0.41,3.237-0.821,3.456-0.958c-1.824-4.987-6.063-11.147-15.815-13.047h21.402    c1.569,0,2.058,0.298,2.058,2.16v63.026c0,1.934,1.568,3.502,3.502,3.502c1.934,0,3.502-1.568,3.502-3.502V21.318    C80.08,15.752,76.523,12.154,71.019,12.154z"/></g><g><g><path d="M23.995,56.026c-0.645,0-1.167-0.522-1.167-1.167c0-1.103,0.526-1.7,0.875-2.096c0.259-0.294,0.292-0.343,0.292-0.553     c0-0.209-0.033-0.258-0.292-0.553c-0.349-0.395-0.875-0.992-0.875-2.096c0-1.103,0.527-1.7,0.875-2.095     c0.259-0.294,0.292-0.343,0.292-0.551c0-0.646,0.522-1.167,1.167-1.167c0.645,0,1.167,0.522,1.167,1.167     c0,1.103-0.527,1.7-0.875,2.096c-0.259,0.293-0.292,0.343-0.292,0.551c0,0.209,0.033,0.259,0.292,0.553     c0.349,0.396,0.875,0.993,0.875,2.096c0,1.104-0.526,1.701-0.875,2.096c-0.259,0.294-0.292,0.344-0.292,0.552     C25.163,55.503,24.64,56.026,23.995,56.026z"/></g></g><g><g><path d="M33.162,56.026c-0.645,0-1.167-0.522-1.167-1.167c0-1.103,0.526-1.7,0.875-2.096c0.259-0.294,0.292-0.343,0.292-0.553     c0-0.209-0.033-0.258-0.292-0.553c-0.349-0.395-0.875-0.992-0.875-2.096c0-1.103,0.527-1.7,0.875-2.095     c0.259-0.294,0.292-0.343,0.292-0.551c0-0.646,0.522-1.167,1.167-1.167c0.645,0,1.167,0.522,1.167,1.167     c0,1.103-0.527,1.7-0.876,2.096c-0.259,0.293-0.292,0.343-0.292,0.551c0,0.209,0.033,0.259,0.292,0.553     c0.349,0.396,0.875,0.993,0.875,2.096c0,1.104-0.527,1.701-0.875,2.096c-0.259,0.294-0.292,0.344-0.292,0.552     C34.33,55.503,33.807,56.026,33.162,56.026z"/></g></g><g><g><path d="M42.329,56.026c-0.645,0-1.167-0.522-1.167-1.167c0-1.103,0.527-1.7,0.875-2.096c0.259-0.294,0.292-0.343,0.292-0.553     c0-0.209-0.033-0.258-0.292-0.553c-0.349-0.395-0.875-0.992-0.875-2.096c0-1.103,0.527-1.7,0.875-2.095     c0.259-0.294,0.292-0.343,0.292-0.551c0-0.646,0.522-1.167,1.167-1.167s1.167,0.522,1.167,1.167c0,1.103-0.527,1.7-0.875,2.096     c-0.259,0.293-0.292,0.343-0.292,0.551c0,0.209,0.033,0.259,0.292,0.553c0.349,0.396,0.875,0.993,0.875,2.096     c0,1.104-0.527,1.701-0.875,2.096c-0.259,0.294-0.292,0.344-0.292,0.552C43.496,55.503,42.974,56.026,42.329,56.026z"/></g></g><g><g><path d="M51.496,56.026c-0.645,0-1.167-0.522-1.167-1.167c0-1.103,0.526-1.7,0.875-2.096c0.259-0.294,0.292-0.343,0.292-0.553     c0-0.209-0.033-0.258-0.292-0.553c-0.349-0.395-0.875-0.992-0.875-2.096c0-1.103,0.527-1.7,0.875-2.095     c0.259-0.294,0.292-0.343,0.292-0.551c0-0.646,0.523-1.167,1.167-1.167s1.167,0.522,1.167,1.167c0,1.103-0.527,1.7-0.876,2.096     c-0.259,0.293-0.292,0.343-0.292,0.551c0,0.209,0.033,0.259,0.292,0.553c0.349,0.396,0.875,0.993,0.875,2.096     c0,1.104-0.527,1.701-0.875,2.096c-0.259,0.294-0.292,0.344-0.292,0.552C52.664,55.503,52.141,56.026,51.496,56.026z"/></g></g><g><g><path d="M60.663,56.026c-0.645,0-1.167-0.522-1.167-1.167c0-1.103,0.526-1.7,0.875-2.096c0.259-0.294,0.292-0.343,0.292-0.553     c0-0.209-0.033-0.258-0.292-0.553c-0.349-0.395-0.875-0.992-0.875-2.096c0-1.103,0.526-1.7,0.875-2.095     c0.259-0.294,0.292-0.343,0.292-0.551c0-0.646,0.522-1.167,1.167-1.167s1.167,0.522,1.167,1.167c0,1.103-0.527,1.7-0.875,2.096     c-0.259,0.293-0.292,0.343-0.292,0.551c0,0.209,0.033,0.259,0.292,0.553c0.349,0.396,0.875,0.993,0.875,2.096     c0,1.104-0.527,1.701-0.875,2.096c-0.259,0.294-0.292,0.344-0.292,0.552C61.83,55.503,61.308,56.026,60.663,56.026z"/></g></g><g><g><path d="M23.995,70.433c-0.645,0-1.167-0.522-1.167-1.167c0-1.103,0.526-1.701,0.875-2.096c0.259-0.294,0.292-0.343,0.292-0.552     c0-0.209-0.033-0.259-0.292-0.553c-0.349-0.395-0.875-0.992-0.875-2.096c0-1.103,0.527-1.7,0.875-2.096     c0.259-0.293,0.292-0.343,0.292-0.551c0-0.645,0.522-1.167,1.167-1.167c0.645,0,1.167,0.522,1.167,1.167     c0,1.103-0.527,1.7-0.875,2.096c-0.259,0.293-0.292,0.343-0.292,0.551c0,0.209,0.033,0.259,0.292,0.553     c0.349,0.396,0.875,0.993,0.875,2.096c0,1.104-0.526,1.701-0.875,2.096c-0.259,0.294-0.292,0.344-0.292,0.552     C25.163,69.91,24.64,70.433,23.995,70.433z"/></g></g><g><g><path d="M33.162,70.433c-0.645,0-1.167-0.522-1.167-1.167c0-1.103,0.526-1.701,0.875-2.096c0.259-0.294,0.292-0.343,0.292-0.552     c0-0.209-0.033-0.259-0.292-0.553c-0.349-0.395-0.875-0.992-0.875-2.096c0-1.103,0.527-1.7,0.875-2.096     c0.259-0.293,0.292-0.343,0.292-0.551c0-0.645,0.522-1.167,1.167-1.167c0.645,0,1.167,0.522,1.167,1.167     c0,1.103-0.527,1.7-0.876,2.096c-0.259,0.293-0.292,0.343-0.292,0.551c0,0.209,0.033,0.259,0.292,0.553     c0.349,0.396,0.875,0.993,0.875,2.096c0,1.104-0.527,1.701-0.875,2.096c-0.259,0.294-0.292,0.344-0.292,0.552     C34.33,69.91,33.807,70.433,33.162,70.433z"/></g></g><g><g><path d="M42.329,70.433c-0.645,0-1.167-0.522-1.167-1.167c0-1.103,0.527-1.701,0.875-2.096c0.259-0.294,0.292-0.343,0.292-0.552     c0-0.209-0.033-0.259-0.292-0.553c-0.349-0.395-0.875-0.992-0.875-2.096c0-1.103,0.527-1.7,0.875-2.096     c0.259-0.293,0.292-0.343,0.292-0.551c0-0.645,0.522-1.167,1.167-1.167s1.167,0.522,1.167,1.167c0,1.103-0.527,1.7-0.875,2.096     c-0.259,0.293-0.292,0.343-0.292,0.551c0,0.209,0.033,0.259,0.292,0.553c0.349,0.396,0.875,0.993,0.875,2.096     c0,1.104-0.527,1.701-0.875,2.096c-0.259,0.294-0.292,0.344-0.292,0.552C43.496,69.91,42.974,70.433,42.329,70.433z"/></g></g><g><g><path d="M51.496,70.433c-0.645,0-1.167-0.522-1.167-1.167c0-1.103,0.526-1.701,0.875-2.096c0.259-0.294,0.292-0.343,0.292-0.552     c0-0.209-0.033-0.259-0.292-0.553c-0.349-0.395-0.875-0.992-0.875-2.096c0-1.103,0.527-1.7,0.875-2.096     c0.259-0.293,0.292-0.343,0.292-0.551c0-0.645,0.523-1.167,1.167-1.167s1.167,0.522,1.167,1.167c0,1.103-0.527,1.7-0.876,2.096     c-0.259,0.293-0.292,0.343-0.292,0.551c0,0.209,0.033,0.259,0.292,0.553c0.349,0.396,0.875,0.993,0.875,2.096     c0,1.104-0.527,1.701-0.875,2.096c-0.259,0.294-0.292,0.344-0.292,0.552C52.664,69.91,52.141,70.433,51.496,70.433z"/></g></g><g><g><path d="M60.663,70.433c-0.645,0-1.167-0.522-1.167-1.167c0-1.103,0.526-1.701,0.875-2.096c0.259-0.294,0.292-0.343,0.292-0.552     c0-0.209-0.033-0.259-0.292-0.553c-0.349-0.395-0.875-0.992-0.875-2.096c0-1.103,0.526-1.7,0.875-2.096     c0.259-0.293,0.292-0.343,0.292-0.551c0-0.645,0.522-1.167,1.167-1.167s1.167,0.522,1.167,1.167c0,1.103-0.527,1.7-0.875,2.096     c-0.259,0.293-0.292,0.343-0.292,0.551c0,0.209,0.033,0.259,0.292,0.553c0.349,0.396,0.875,0.993,0.875,2.096     c0,1.104-0.527,1.701-0.875,2.096c-0.259,0.294-0.292,0.344-0.292,0.552C61.83,69.91,61.308,70.433,60.663,70.433z"/></g></g><g><g><path d="M23.995,84.839c-0.645,0-1.167-0.522-1.167-1.167c0-1.103,0.526-1.701,0.875-2.096c0.259-0.294,0.292-0.344,0.292-0.553     s-0.033-0.258-0.292-0.553c-0.349-0.396-0.875-0.993-0.875-2.096c0-1.104,0.527-1.7,0.875-2.096     c0.259-0.293,0.292-0.343,0.292-0.552c0-0.645,0.522-1.167,1.167-1.167c0.645,0,1.167,0.522,1.167,1.167     c0,1.104-0.527,1.7-0.875,2.096c-0.259,0.294-0.292,0.343-0.292,0.552c0,0.208,0.033,0.259,0.292,0.552     c0.349,0.395,0.875,0.993,0.875,2.096c0,1.103-0.526,1.7-0.875,2.096c-0.259,0.294-0.292,0.344-0.292,0.553     C25.163,84.316,24.64,84.839,23.995,84.839z"/></g></g><g><g><path d="M33.162,84.839c-0.645,0-1.167-0.522-1.167-1.167c0-1.103,0.526-1.701,0.875-2.096c0.259-0.294,0.292-0.344,0.292-0.553     s-0.033-0.258-0.292-0.553c-0.349-0.396-0.875-0.993-0.875-2.096c0-1.104,0.527-1.7,0.875-2.096     c0.259-0.293,0.292-0.343,0.292-0.552c0-0.645,0.522-1.167,1.167-1.167c0.645,0,1.167,0.522,1.167,1.167     c0,1.104-0.527,1.7-0.876,2.096c-0.259,0.294-0.292,0.343-0.292,0.552c0,0.208,0.033,0.259,0.292,0.552     c0.349,0.395,0.875,0.993,0.875,2.096c0,1.103-0.527,1.7-0.875,2.096c-0.259,0.294-0.292,0.344-0.292,0.553     C34.33,84.316,33.807,84.839,33.162,84.839z"/></g></g><g><g><path d="M42.329,84.839c-0.645,0-1.167-0.522-1.167-1.167c0-1.103,0.527-1.701,0.875-2.096c0.259-0.294,0.292-0.344,0.292-0.553     s-0.033-0.258-0.292-0.553c-0.349-0.396-0.875-0.993-0.875-2.096c0-1.104,0.527-1.7,0.875-2.096     c0.259-0.293,0.292-0.343,0.292-0.552c0-0.645,0.522-1.167,1.167-1.167s1.167,0.522,1.167,1.167c0,1.104-0.527,1.7-0.875,2.096     c-0.259,0.294-0.292,0.343-0.292,0.552c0,0.208,0.033,0.259,0.292,0.552c0.349,0.395,0.875,0.993,0.875,2.096     c0,1.103-0.527,1.7-0.875,2.096c-0.259,0.294-0.292,0.344-0.292,0.553C43.496,84.316,42.974,84.839,42.329,84.839z"/></g></g><g><g><path d="M51.496,84.839c-0.645,0-1.167-0.522-1.167-1.167c0-1.103,0.526-1.701,0.875-2.096c0.259-0.294,0.292-0.344,0.292-0.553     s-0.033-0.258-0.292-0.553c-0.349-0.396-0.875-0.993-0.875-2.096c0-1.104,0.527-1.7,0.875-2.096     c0.259-0.293,0.292-0.343,0.292-0.552c0-0.645,0.523-1.167,1.167-1.167s1.167,0.522,1.167,1.167c0,1.104-0.527,1.7-0.876,2.096     c-0.259,0.294-0.292,0.343-0.292,0.552c0,0.208,0.033,0.259,0.292,0.552c0.349,0.395,0.875,0.993,0.875,2.096     c0,1.103-0.527,1.7-0.875,2.096c-0.259,0.294-0.292,0.344-0.292,0.553C52.664,84.316,52.141,84.839,51.496,84.839z"/></g></g><g><g><path d="M60.663,84.839c-0.645,0-1.167-0.522-1.167-1.167c0-1.103,0.526-1.701,0.875-2.096c0.259-0.294,0.292-0.344,0.292-0.553     s-0.033-0.258-0.292-0.553c-0.349-0.396-0.875-0.993-0.875-2.096c0-1.104,0.526-1.7,0.875-2.096     c0.259-0.293,0.292-0.343,0.292-0.552c0-0.645,0.522-1.167,1.167-1.167s1.167,0.522,1.167,1.167c0,1.104-0.527,1.7-0.875,2.096     c-0.259,0.294-0.292,0.343-0.292,0.552c0,0.208,0.033,0.259,0.292,0.552c0.349,0.395,0.875,0.993,0.875,2.096     c0,1.103-0.527,1.7-0.875,2.096c-0.259,0.294-0.292,0.344-0.292,0.553C61.83,84.316,61.308,84.839,60.663,84.839z"/></g></g></g><text x="0" y="115" fill="#000000" font-size="5px" font-weight="bold" font-family="'Helvetica Neue', Helvetica, Arial-Unicode, Arial, Sans-serif">Created by Filippo Gianessi</text><text x="0" y="120" fill="#000000" font-size="5px" font-weight="bold" font-family="'Helvetica Neue', Helvetica, Arial-Unicode, Arial, Sans-serif">from the Noun Project</text></svg>