<svg xmlns="http://www.w3.org/2000/svg" xmlns:xlink="http://www.w3.org/1999/xlink" version="1.1" x="0px" y="0px" viewBox="0 0 100 125" enable-background="new 0 0 100 100" xml:space="preserve"><g><path d="M80.054,49.189c0,11.402-9.242,20.644-20.644,20.644c-11.402,0-20.644-9.241-20.644-20.644"/><rect x="24" y="17" width="15" height="69"/><path d="M51.833,65.833C51.833,65.833,44.5,86,37,86s37.167,0,37.167,0s-9-2.797-9-18.695L51.833,65.833z"/><path d="M41.193,48.673c-0.451,0.115-0.969-0.389-1.156-1.126l0,0c-0.189-0.735,0.023-1.426,0.477-1.54l36.749-9.371   c0.45-0.115,0.969,0.388,1.156,1.125l0,0c0.188,0.737-0.025,1.425-0.477,1.541L41.193,48.673z"/><path d="M39,14.479C39,15.342,38.607,16,37.917,16h-12.5C24.727,16,24,15.342,24,14.479v-0.625C24,12.99,24.727,12,25.417,12h12.5   C38.607,12,39,12.99,39,13.854V14.479z"/><g><path d="M36.502,22.389C36.586,23.395,35.216,24,35.104,24h-4.36C29.91,24,30,23.291,30,22.827V21.15    c0-0.463-0.09-0.15,0.744-0.15h4.192C34.937,21,36.586,21.607,36.502,22.389z"/><path fill="#000000" d="M36.502,22.055l-0.021,0.282c0.009,0.097-0.06,0.177-0.087,0.268c-0.03,0.093-0.085,0.17-0.146,0.243    c-0.058,0.075-0.112,0.154-0.188,0.213c-0.137,0.133-0.284,0.252-0.441,0.362l-0.463,0.294l-0.03,0.02l-0.021,0.001l-3.288,0.272    l-0.822,0.022L30.788,24h-0.233c-0.11,0-0.347,0.023-0.527-0.032c-0.184-0.061-0.393-0.136-0.55-0.32    c-0.167-0.178-0.24-0.396-0.279-0.599c-0.025-0.219-0.021-0.342-0.024-0.475l-0.007-0.408l0.015-0.82l0.006-0.249    c0.016-0.09-0.011-0.078,0.052-0.293c0.095-0.36,0.507-0.545,0.671-0.546c0.385-0.052,0.629-0.017,0.916-0.004l0.822,0.069    l3.288,0.273l0.018,0.001l0.007,0.003c0.345,0.151,0.664,0.342,0.965,0.561C36.207,21.375,36.534,21.665,36.502,22.055z     M36.502,22.055c0.019-0.389-0.313-0.66-0.599-0.863c-0.307-0.2-0.649-0.345-0.991-0.459l0.024,0.004l-3.288,0.273l-0.822,0.069    c-0.26,0.023-0.569,0.026-0.724,0.074c-0.105,0.036,0.034,0.011,0.055-0.079c0.004-0.089-0.008,0.065-0.009,0.11    c0.003-0.02,0.003,0.113,0.004,0.162l0.015,0.822L30.16,22.58c-0.005,0.141-0.004,0.286-0.001,0.34    c0.034,0.13,0.029,0.147,0.176,0.23c0.078,0.026,0.113,0.057,0.276,0.069l0.177,0.019l0.206,0.014l0.822,0.069l3.288,0.272    l-0.051,0.021c0.196-0.118,0.348-0.171,0.519-0.267c0.161-0.094,0.324-0.187,0.461-0.315c0.077-0.055,0.132-0.131,0.191-0.203    c0.063-0.07,0.12-0.144,0.151-0.232c0.03-0.087,0.101-0.163,0.096-0.261L36.502,22.055z"/></g></g><text x="0" y="115" fill="#000000" font-size="5px" font-weight="bold" font-family="'Helvetica Neue', Helvetica, Arial-Unicode, Arial, Sans-serif">Created by Carla Gom Mejorada</text><text x="0" y="120" fill="#000000" font-size="5px" font-weight="bold" font-family="'Helvetica Neue', Helvetica, Arial-Unicode, Arial, Sans-serif">from the Noun Project</text></svg>