<svg xmlns="http://www.w3.org/2000/svg" xmlns:xlink="http://www.w3.org/1999/xlink" version="1.1" x="0px" y="0px" viewBox="0 0 90 112.5" enable-background="new 0 0 90 90" xml:space="preserve"><g><path d="M38.689,17.804c0-5.65-1.839-10.031-5.515-13.14C29.497,1.555,24.319,0,17.641,0H0v58.156h9.611V37.067h7.746   c6.542,0,11.734-1.797,15.573-5.394C36.769,28.078,38.689,23.455,38.689,17.804z M25.306,26.32c-2.163,1.92-5.312,2.88-9.449,2.88   H9.611V7.949h7.016c7.949,0,11.923,3.421,11.923,10.261C28.55,21.697,27.469,24.401,25.306,26.32z"/><rect x="33.22" y="79.848" width="41.959" height="4.496"/><rect x="22.714" y="79.848" width="8.492" height="10.152"/><rect x="77.605" y="79.848" width="7.667" height="10.152"/><path d="M87.674,57.056h-2.106h-4.997v5.284h-3.127l-8.23-12.205H38.787L30.562,62.34h-3.134v-5.284h-4.997h-2.106   c-1.284,0-2.326,1.041-2.326,2.326v0.316v2.642h5.956v2.842h-1.242v9.114v3.97H26.8h54.403h4.084v-4.54v-8.544h-1.24V62.34H90   v-2.642v-0.316C90,58.097,88.959,57.056,87.674,57.056z M40,52.416h28.003l5.919,8.783H34.086L40,52.416z M42.75,69.5h-1v1h-1v1h-1   v1h-1v1h-1v1h-10h-1v-1v-1v-4h3h2h2h3h1h1h1h1h1h1V69.5z M50.75,74.5h-2v-6h2V74.5z M55.75,74.5h-2v-6h2V74.5z M60.75,74.5h-2v-6h2   V74.5z M80.75,69.5v5h-11v-1h-1v-1h-1v-1h-1v-1h-1v-1h-1v-1h1h1h1h1h1h2h3h6V69.5z"/></g><text x="0" y="105" fill="#000000" font-size="5px" font-weight="bold" font-family="'Helvetica Neue', Helvetica, Arial-Unicode, Arial, Sans-serif">Created by Sathish Selladurai</text><text x="0" y="110" fill="#000000" font-size="5px" font-weight="bold" font-family="'Helvetica Neue', Helvetica, Arial-Unicode, Arial, Sans-serif">from the Noun Project</text></svg>