<svg xmlns="http://www.w3.org/2000/svg" xmlns:xlink="http://www.w3.org/1999/xlink" version="1.1" x="0px" y="0px" viewBox="0 0 100 125" enable-background="new 0 0 100 100" xml:space="preserve"><g><path d="M23,0c-6.629,0-12,8.955-12,20c0,8.704,3.342,16.089,8,18.838V96c0,2.2,1.8,4,4,4s4-1.8,4-4V38.838   c4.658-2.749,8-10.134,8-18.838C35,8.955,29.629,0,23,0z"/><path d="M59.5,0C58.675,0,58,0.675,58,1.5v22c0,0.825-0.45,1.5-1,1.5s-1-0.675-1-1.5v-22C56,0.675,55.325,0,54.5,0S53,0.675,53,1.5   v22c0,0.825-0.45,1.5-1,1.5s-1-0.675-1-1.5v-22C51,0.675,50.325,0,49.5,0S48,0.675,48,1.5v22c0,0.825-0.45,1.5-1,1.5   s-1-0.675-1-1.5v-22C46,0.675,45.325,0,44.5,0S43,0.675,43,1.5c0,0,0,16.921,0,21.5c0,8.438,1.392,13.893,5,16.004V96   c0,2.2,1.8,4,4,4s4-1.8,4-4V39.004c3.608-2.111,5-7.566,5-16.004c0-6.428,0-21.5,0-21.5C61,0.675,60.325,0,59.5,0z"/><path d="M81,0c-6.629,0-12,10.746-12,24c0,10.449,3.339,19.334,8,22.629V96c0,2.2,1.8,4,4,4s4-1.8,4-4V4C85,1.8,83.2,0,81,0z"/></g><text x="0" y="115" fill="#000000" font-size="5px" font-weight="bold" font-family="'Helvetica Neue', Helvetica, Arial-Unicode, Arial, Sans-serif">Created by Andreas Larsen</text><text x="0" y="120" fill="#000000" font-size="5px" font-weight="bold" font-family="'Helvetica Neue', Helvetica, Arial-Unicode, Arial, Sans-serif">from the Noun Project</text></svg>