<svg xmlns="http://www.w3.org/2000/svg" xmlns:xlink="http://www.w3.org/1999/xlink" version="1.1" x="0px" y="0px" viewBox="0 0 100 125" enable-background="new 0 0 100 100" xml:space="preserve"><path d="M28.787,14.24c0-3.921,1.141-4.343,4.763-6.469c3.645-2.171,7.821-2.725,11.088,0.266c3.767-2.88,12.828-8.131,16.294-2.326  c3.623-3.744,5.971-5.373,11.576-5.683c4.963-0.277,6.935,1.562,8.773,5.572c4.275-1.95,9.083-4.032,12.739,0.333  c2.547,3.013,4.298,8.463,2.747,12.273c-1.374,3.345-6.669,4.077-10.191,3.833c-3.922-0.288-5.981-2.548-7.577-5.14  c0.288,2.858-6.912,2.459-8.773,2.459c-3.622,0-4.686-0.111-7.698-2.105c-2.969-1.972-2.759-0.31-6.624,0.554  c-2.438,0.531-6.215,0.576-8.508-0.377c-1.462-0.62-2.47-2.215-3.943-2.371c-1.263-0.133-3.633,0.909-4.796,1.33  c-1.772,0.62-1.806,0.687-3.323,1.949c-1.318,1.086-5.107,1.33-7.112,1.02c-0.055-0.488,0.454-2.238,0.565-2.703V14.24z"/><path d="M90.255,53.21L70.759,42.376v-9.748l1.396,1.307l0.487-0.532l-1.883-1.75v-1.706l3.522,3.279l0.487-0.532l-3.412-3.168  l1.308-0.51l3.744,3.5l0.487-0.532l-3.5-3.257l1.307-0.487l3.833,3.567l0.487-0.532l-3.567-3.323l1.308-0.509l-0.443-1.152  l-1.883,0.731l-2.946-2.748l-0.488,0.532l2.681,2.503l-1.284,0.488l-3.035-2.814l-0.487,0.532l2.769,2.57l-1.284,0.51l-3.124-2.902  l-0.487,0.532l2.857,2.659l-0.598,0.222h-0.022l-0.665,0.266l-3.212-2.969l-0.487,0.532l2.936,2.725l-1.296,0.509l-3.279-3.057  l-0.487,0.532l3.024,2.813l-0.765,0.288l0.432,1.152l1.329-0.51l2.471,2.282v7.732L45.591,28.396L28.931,38.1v-7.577h1.772  l-3.899-7.444l-5.317-0.354l3.899-4.608l-3.19-7.798l-7.798,20.205h3.19v14.179L2.345,53.564L2.7,64.553l8.507-5.052V100h26.231  l9.571-6.735L46.3,70.225l-8.862,2.836c0,0,1.063-4.963,9.571-4.963c0,0,6.026-0.354,8.508,4.963V100h26.23V59.989l8.508,4.918  V53.21z M67.27,31.099l1.296-0.509l0.421,0.398v1.706L67.27,31.099z"/><text x="0" y="115" fill="#000000" font-size="5px" font-weight="bold" font-family="'Helvetica Neue', Helvetica, Arial-Unicode, Arial, Sans-serif">Created by Ealancheliyan s</text><text x="0" y="120" fill="#000000" font-size="5px" font-weight="bold" font-family="'Helvetica Neue', Helvetica, Arial-Unicode, Arial, Sans-serif">from the Noun Project</text></svg>