<svg xmlns="http://www.w3.org/2000/svg" xmlns:xlink="http://www.w3.org/1999/xlink" version="1.1" x="0px" y="0px" viewBox="0 0 100 125" style="enable-background:new 0 0 100 100;" xml:space="preserve"><path d="M90,50c0-4.136-3.364-7.5-7.5-7.5S75,45.864,75,50v2.5h5V50c0-1.378,1.122-2.5,2.5-2.5S85,48.622,85,50v7.5H60V60  c0,6.893,5.607,12.5,12.5,12.5H75v8.75c0,3.446,2.804,6.25,6.25,6.25c2.125,0,4.004-1.068,5.133-2.694  c0.702-1.01,1.117-2.235,1.117-3.556c0-0.689,0.561-1.25,1.25-1.25S90,80.561,90,81.25V95h5V81.25c0-3.446-2.804-6.25-6.25-6.25  c-2.662,0-4.935,1.676-5.834,4.027c-0.265,0.692-0.416,1.44-0.416,2.223c0,0.689-0.561,1.25-1.25,1.25S80,81.939,80,81.25v-7.083  V72.5h15v-15h-5V50z M90,67.5H72.5c-3.259,0-6.04-2.09-7.072-5H90V67.5z"/><path d="M7.5,72.5h5.698L17.5,85.405V92.5c0,1.381,1.119,2.5,2.5,2.5h15c1.381,0,2.5-1.119,2.5-2.5v-5.2  c8.466-1.22,15-8.502,15-17.3c0-1.381-1.119-2.5-2.5-2.5H25V45c0-1.381-1.119-2.5-2.5-2.5h-5c0-1.381-1.119-2.5-2.5-2.5  s-2.5,1.119-2.5,2.5h-5C6.119,42.5,5,43.619,5,45v25C5,71.381,6.119,72.5,7.5,72.5z M32.5,90h-10v-2.5h10V90z M47.249,72.5  c-1.162,5.698-6.212,10-12.249,10H21.802l-3.333-10H22.5H47.249z M10,47.5h10v20h-5h-5V47.5z"/><text x="0" y="115" fill="#000000" font-size="5px" font-weight="bold" font-family="'Helvetica Neue', Helvetica, Arial-Unicode, Arial, Sans-serif">Created by Arthur Shlain</text><text x="0" y="120" fill="#000000" font-size="5px" font-weight="bold" font-family="'Helvetica Neue', Helvetica, Arial-Unicode, Arial, Sans-serif">from the Noun Project</text></svg>